<?xml version="1.0" encoding="UTF-8"?>
<!DOCTYPE svg PUBLIC "-//W3C//DTD SVG 1.1//EN" "http://www.w3.org/Graphics/SVG/1.1/DTD/svg11.dtd">
<svg xmlns="http://www.w3.org/2000/svg" version="1.1" width="1080px" height="1080px" style="shape-rendering:geometricPrecision; text-rendering:geometricPrecision; image-rendering:optimizeQuality; fill-rule:evenodd; clip-rule:evenodd" xmlns:xlink="http://www.w3.org/1999/xlink">
<g><path style="opacity:1" fill="#434343" d="M 572.5,759.5 C 572.427,761.027 573.094,762.027 574.5,762.5C 576.063,763.945 577.396,765.611 578.5,767.5C 578.427,769.027 579.094,770.027 580.5,770.5C 620.709,818.761 672.375,845.594 735.5,851C 771.317,853.394 806.65,850.394 841.5,842C 863.84,834.83 884.507,824.497 903.5,811C 911.35,804.582 919.35,798.416 927.5,792.5C 929.027,792.573 930.027,791.906 930.5,790.5C 951.22,777.152 970.387,779.152 988,796.5C 1014.85,824.38 1041.35,852.547 1067.5,881C 1012.41,950.576 941.074,994.242 853.5,1012C 785.006,1024.79 716.339,1025.79 647.5,1015C 593.363,1005.02 543.363,985.189 497.5,955.5C 497.027,954.094 496.027,953.427 494.5,953.5C 485.939,948.603 477.939,942.937 470.5,936.5C 470.027,935.094 469.027,934.427 467.5,934.5C 415.464,893.287 375.964,842.287 349,781.5C 320.038,713.693 305.538,642.86 305.5,569C 304.673,489.812 322.173,414.979 358,344.5C 364.274,333.603 370.774,322.936 377.5,312.5C 378.906,312.027 379.573,311.027 379.5,309.5C 380.906,309.027 381.573,308.027 381.5,306.5C 382.906,306.027 383.573,305.027 383.5,303.5C 384.906,303.027 385.573,302.027 385.5,300.5C 386.906,300.027 387.573,299.027 387.5,297.5C 388.906,297.027 389.573,296.027 389.5,294.5C 390.124,292.246 391.457,290.579 393.5,289.5C 394.906,289.027 395.573,288.027 395.5,286.5C 405.069,272.929 415.735,260.263 427.5,248.5C 434.444,243.225 440.777,237.225 446.5,230.5C 478.832,200.381 515.166,175.881 555.5,157C 641.264,118.842 730.931,104.508 824.5,114C 892.646,121.382 955.98,142.715 1014.5,178C 1037.93,192.761 1058.93,210.428 1077.5,231C 1054.73,262.77 1031.57,294.27 1008,325.5C 1001.72,332.789 994.551,338.956 986.5,344C 974.146,348.549 961.813,348.549 949.5,344C 930.175,334.008 911.508,323.008 893.5,311C 855.544,291.595 815.211,282.429 772.5,283.5C 688.443,282.45 621.276,315.116 571,381.5C 538.67,430.162 521.336,483.829 519,542.5C 514.47,602.955 524.137,660.955 548,716.5C 555.167,731.511 563.333,745.845 572.5,759.5 Z"/></g>
<g><path style="opacity:1" fill="#434343" d="M 276.5,765.5 C 276.427,767.027 277.094,768.027 278.5,768.5C 299.72,793.891 325.386,813.391 355.5,827C 363.723,839.049 371.723,851.216 379.5,863.5C 379.427,865.027 380.094,866.027 381.5,866.5C 382.167,866.5 382.5,866.833 382.5,867.5C 382.427,869.027 383.094,870.027 384.5,870.5C 386.207,871.873 387.54,873.539 388.5,875.5C 388.427,877.027 389.094,878.027 390.5,878.5C 390.738,880.404 391.738,881.738 393.5,882.5C 403.495,893.828 413.828,904.828 424.5,915.5C 424.427,917.027 425.094,918.027 426.5,918.5C 469.56,958.208 518.56,988.542 573.5,1009.5C 573.167,1010.17 572.833,1010.83 572.5,1011.5C 482.228,1028.67 393.228,1023.5 305.5,996C 254.946,979.07 209.279,953.903 168.5,920.5C 168.027,919.094 167.027,918.427 165.5,918.5C 157.578,913.247 150.578,906.914 144.5,899.5C 144.027,898.094 143.027,897.427 141.5,897.5C 62.6933,819.526 18.5267,724.86 9,613.5C -0.369183,512.675 19.2975,418.008 68,329.5C 72.1904,323.101 76.357,316.768 80.5,310.5C 81.9063,310.027 82.573,309.027 82.5,307.5C 84.3535,303.779 86.6869,300.446 89.5,297.5C 90.9063,297.027 91.573,296.027 91.5,294.5C 92.0256,292.77 93.0256,291.436 94.5,290.5C 95.9063,290.027 96.573,289.027 96.5,287.5C 106.705,272.957 118.372,259.623 131.5,247.5C 133.587,246.415 134.92,244.749 135.5,242.5C 140.141,238.195 144.807,233.861 149.5,229.5C 152.089,228.581 154.089,226.914 155.5,224.5C 211.334,175.912 275.668,143.079 348.5,126C 429.618,107.698 510.618,108.032 591.5,127C 497.376,160.52 422.709,218.686 367.5,301.5C 313.918,323.248 274.752,360.248 250,412.5C 232.15,451.9 222.15,493.233 220,536.5C 216.309,588.577 221.976,639.577 237,689.5C 246.263,717.031 259.43,742.364 276.5,765.5 Z"/></g>
<g><path style="opacity:0.859" fill="#282828" d="M 155.5,224.5 C 154.089,226.914 152.089,228.581 149.5,229.5C 150.911,227.086 152.911,225.419 155.5,224.5 Z"/></g>
<g><path style="opacity:0.831" fill="#282828" d="M 446.5,230.5 C 440.777,237.225 434.444,243.225 427.5,248.5C 433.223,241.775 439.556,235.775 446.5,230.5 Z"/></g>
<g><path style="opacity:0.725" fill="#212121" d="M 135.5,242.5 C 134.92,244.749 133.587,246.415 131.5,247.5C 132.08,245.251 133.413,243.585 135.5,242.5 Z"/></g>
<g><path style="opacity:0.843" fill="#242424" d="M 395.5,286.5 C 395.573,288.027 394.906,289.027 393.5,289.5C 393.427,287.973 394.094,286.973 395.5,286.5 Z"/></g>
<g><path style="opacity:0.804" fill="#222222" d="M 96.5,287.5 C 96.573,289.027 95.9063,290.027 94.5,290.5C 94.427,288.973 95.0937,287.973 96.5,287.5 Z"/></g>
<g><path style="opacity:0.604" fill="#222222" d="M 91.5,294.5 C 91.573,296.027 90.9063,297.027 89.5,297.5C 89.427,295.973 90.0937,294.973 91.5,294.5 Z"/></g>
<g><path style="opacity:0.627" fill="#242424" d="M 389.5,294.5 C 389.573,296.027 388.906,297.027 387.5,297.5C 387.427,295.973 388.094,294.973 389.5,294.5 Z"/></g>
<g><path style="opacity:1" fill="#434343" d="M 862.5,319.5 C 862.427,321.027 863.094,322.027 864.5,322.5C 909.324,397.614 931.324,479.114 930.5,567C 931.236,657.568 908.069,741.402 861,818.5C 849.344,825.165 836.844,829.665 823.5,832C 791.014,837.557 758.348,838.89 725.5,836C 690.141,831.836 658.475,819.002 630.5,797.5C 671.338,760.191 697.505,714.191 709,659.5C 721.952,596.427 721.619,533.427 708,470.5C 696.099,418.841 670.932,375.008 632.5,339C 643.308,331.041 654.975,324.541 667.5,319.5C 669.027,319.573 670.027,318.906 670.5,317.5C 672.421,316.637 674.421,315.971 676.5,315.5C 678.153,315.34 679.486,314.674 680.5,313.5C 693.105,308.409 706.105,304.743 719.5,302.5C 722.428,302.435 725.095,301.768 727.5,300.5C 771.252,293.913 814.252,297.08 856.5,310C 859.147,312.801 861.147,315.968 862.5,319.5 Z"/></g>
<g><path style="opacity:0.616" fill="#232323" d="M 387.5,297.5 C 387.573,299.027 386.906,300.027 385.5,300.5C 385.427,298.973 386.094,297.973 387.5,297.5 Z"/></g>
<g><path style="opacity:0.584" fill="#151515" d="M 727.5,300.5 C 725.095,301.768 722.428,302.435 719.5,302.5C 721.838,300.96 724.505,300.294 727.5,300.5 Z"/></g>
<g><path style="opacity:0.6" fill="#232323" d="M 385.5,300.5 C 385.573,302.027 384.906,303.027 383.5,303.5C 383.427,301.973 384.094,300.973 385.5,300.5 Z"/></g>
<g><path style="opacity:0.584" fill="#222222" d="M 383.5,303.5 C 383.573,305.027 382.906,306.027 381.5,306.5C 381.427,304.973 382.094,303.973 383.5,303.5 Z"/></g>
<g><path style="opacity:0.569" fill="#212121" d="M 381.5,306.5 C 381.573,308.027 380.906,309.027 379.5,309.5C 379.427,307.973 380.094,306.973 381.5,306.5 Z"/></g>
<g><path style="opacity:0.627" fill="#242424" d="M 82.5,307.5 C 82.573,309.027 81.9063,310.027 80.5,310.5C 80.427,308.973 81.0937,307.973 82.5,307.5 Z"/></g>
<g><path style="opacity:0.557" fill="#212121" d="M 379.5,309.5 C 379.573,311.027 378.906,312.027 377.5,312.5C 377.427,310.973 378.094,309.973 379.5,309.5 Z"/></g>
<g><path style="opacity:0.631" fill="#1b1b1b" d="M 680.5,313.5 C 679.486,314.674 678.153,315.34 676.5,315.5C 677.287,313.896 678.62,313.229 680.5,313.5 Z"/></g>
<g><path style="opacity:0.706" fill="#1d1d1d" d="M 670.5,317.5 C 670.027,318.906 669.027,319.573 667.5,319.5C 667.973,318.094 668.973,317.427 670.5,317.5 Z"/></g>
<g><path style="opacity:0.533" fill="#202020" d="M 862.5,319.5 C 863.906,319.973 864.573,320.973 864.5,322.5C 863.094,322.027 862.427,321.027 862.5,319.5 Z"/></g>
<g><path style="opacity:0.627" fill="#232323" d="M 572.5,759.5 C 573.906,759.973 574.573,760.973 574.5,762.5C 573.094,762.027 572.427,761.027 572.5,759.5 Z"/></g>
<g><path style="opacity:0.812" fill="#222222" d="M 276.5,765.5 C 277.906,765.973 278.573,766.973 278.5,768.5C 277.094,768.027 276.427,767.027 276.5,765.5 Z"/></g>
<g><path style="opacity:0.835" fill="#242424" d="M 578.5,767.5 C 579.906,767.973 580.573,768.973 580.5,770.5C 579.094,770.027 578.427,769.027 578.5,767.5 Z"/></g>
<g><path style="opacity:0.827" fill="#242424" d="M 930.5,790.5 C 930.027,791.906 929.027,792.573 927.5,792.5C 927.973,791.094 928.973,790.427 930.5,790.5 Z"/></g>
<g><path style="opacity:0.655" fill="#232323" d="M 379.5,863.5 C 380.906,863.973 381.573,864.973 381.5,866.5C 380.094,866.027 379.427,865.027 379.5,863.5 Z"/></g>
<g><path style="opacity:0.592" fill="#212121" d="M 382.5,867.5 C 383.906,867.973 384.573,868.973 384.5,870.5C 383.094,870.027 382.427,869.027 382.5,867.5 Z"/></g>
<g><path style="opacity:0.475" fill="#1b1b1b" d="M 388.5,875.5 C 389.906,875.973 390.573,876.973 390.5,878.5C 389.094,878.027 388.427,877.027 388.5,875.5 Z"/></g>
<g><path style="opacity:0.882" fill="#232323" d="M 390.5,878.5 C 392.262,879.262 393.262,880.596 393.5,882.5C 391.738,881.738 390.738,880.404 390.5,878.5 Z"/></g>
<g><path style="opacity:0.765" fill="#222222" d="M 141.5,897.5 C 143.027,897.427 144.027,898.094 144.5,899.5C 142.973,899.573 141.973,898.906 141.5,897.5 Z"/></g>
<g><path style="opacity:0.557" fill="#191919" d="M 424.5,915.5 C 425.906,915.973 426.573,916.973 426.5,918.5C 425.094,918.027 424.427,917.027 424.5,915.5 Z"/></g>
<g><path style="opacity:0.816" fill="#222222" d="M 165.5,918.5 C 167.027,918.427 168.027,919.094 168.5,920.5C 166.973,920.573 165.973,919.906 165.5,918.5 Z"/></g>
<g><path style="opacity:0.631" fill="#222222" d="M 467.5,934.5 C 469.027,934.427 470.027,935.094 470.5,936.5C 468.973,936.573 467.973,935.906 467.5,934.5 Z"/></g>
<g><path style="opacity:0.561" fill="#212121" d="M 494.5,953.5 C 496.027,953.427 497.027,954.094 497.5,955.5C 495.973,955.573 494.973,954.906 494.5,953.5 Z"/></g>
<g><path style="opacity:0.365" fill="#1b1b1b" d="M 573.5,1009.5 C 577.47,1010.98 577.137,1011.65 572.5,1011.5C 572.833,1010.83 573.167,1010.17 573.5,1009.5 Z"/></g>
</svg>
