<?xml version="1.0" encoding="UTF-8"?>
<!DOCTYPE svg PUBLIC "-//W3C//DTD SVG 1.1//EN" "http://www.w3.org/Graphics/SVG/1.1/DTD/svg11.dtd">
<svg xmlns="http://www.w3.org/2000/svg" version="1.1" width="1080px" height="1080px" style="shape-rendering:geometricPrecision; text-rendering:geometricPrecision; image-rendering:optimizeQuality; fill-rule:evenodd; clip-rule:evenodd" xmlns:xlink="http://www.w3.org/1999/xlink">
<g><path style="opacity:1" fill="#5764f0" d="M 528.5,662.5 C 528.41,665.152 529.076,667.485 530.5,669.5C 543.307,714.774 565.64,754.608 597.5,789C 649.528,837.343 711.194,858.01 782.5,851C 827.126,850.235 867.46,836.902 903.5,811C 915.398,800.44 928.398,791.44 942.5,784C 957.615,779.463 971.282,782.129 983.5,792C 1011.87,821.365 1039.87,851.031 1067.5,881C 1008.34,954.942 931.668,999.608 837.5,1015C 774.161,1024.95 710.827,1024.95 647.5,1015C 579.808,1001.98 518.808,974.642 464.5,933C 460.376,929.945 456.709,926.445 453.5,922.5C 453.027,921.094 452.027,920.427 450.5,920.5C 448.833,919.5 447.5,918.167 446.5,916.5C 446.027,915.094 445.027,914.427 443.5,914.5C 385.362,859.277 345.862,792.61 325,714.5C 301.897,626.424 300.064,538.091 319.5,449.5C 320.924,447.485 321.59,445.152 321.5,442.5C 332.569,395.715 351.236,352.382 377.5,312.5C 378.906,312.027 379.573,311.027 379.5,309.5C 380.906,309.027 381.573,308.027 381.5,306.5C 394.602,286.057 409.602,267.057 426.5,249.5C 431.167,246.833 434.833,243.167 437.5,238.5C 441.1,236.57 444.1,233.903 446.5,230.5C 478.832,200.381 515.166,175.881 555.5,157C 641.264,118.842 730.931,104.508 824.5,114C 892.646,121.382 955.98,142.715 1014.5,178C 1037.93,192.761 1058.93,210.428 1077.5,231C 1054.73,262.77 1031.57,294.27 1008,325.5C 1001.72,332.789 994.551,338.956 986.5,344C 974.146,348.549 961.813,348.549 949.5,344C 930.175,334.008 911.508,323.008 893.5,311C 848.166,288.268 800.166,279.268 749.5,284C 652.242,292.981 583.742,341.815 544,430.5C 526.06,474.367 517.56,520.034 518.5,567.5C 518.338,599.55 521.672,631.217 528.5,662.5 Z"/></g>
<g><path style="opacity:1" fill="#5764f0" d="M 281.5,771.5 C 281.427,773.027 282.094,774.027 283.5,774.5C 301.266,793.612 321.599,809.279 344.5,821.5C 344.821,823.048 345.821,823.715 347.5,823.5C 351.291,825.037 354.791,827.037 358,829.5C 365.429,842.705 373.596,855.372 382.5,867.5C 382.427,869.027 383.094,870.027 384.5,870.5C 386.207,871.873 387.54,873.539 388.5,875.5C 388.427,877.027 389.094,878.027 390.5,878.5C 397.135,885.975 403.635,893.642 410,901.5C 414.675,906.342 419.509,911.009 424.5,915.5C 424.427,917.027 425.094,918.027 426.5,918.5C 469.56,958.208 518.56,988.542 573.5,1009.5C 573.167,1010.17 572.833,1010.83 572.5,1011.5C 485.532,1028.04 399.532,1023.87 314.5,999C 206.068,964.536 123.234,898.37 66,800.5C 60.2951,790.423 55.1284,780.09 50.5,769.5C 50.7148,767.821 50.0481,766.821 48.5,766.5C 8.49299,672.941 -2.67367,575.941 15,475.5C 17.2543,461.822 20.421,448.489 24.5,435.5C 25.9238,433.485 26.5905,431.152 26.5,428.5C 46.255,358.287 81.4216,297.287 132,245.5C 137.248,240.142 142.748,235.142 148.5,230.5C 151.427,229.243 153.761,227.243 155.5,224.5C 211.334,175.912 275.668,143.079 348.5,126C 429.618,107.698 510.618,108.032 591.5,127C 497.376,160.52 422.709,218.686 367.5,301.5C 313.918,323.248 274.752,360.248 250,412.5C 232.15,451.9 222.15,493.233 220,536.5C 216.309,588.577 221.976,639.577 237,689.5C 246.93,719.707 261.763,747.04 281.5,771.5 Z"/></g>
<g><path style="opacity:0.859" fill="#353c8f" d="M 155.5,224.5 C 153.761,227.243 151.427,229.243 148.5,230.5C 150.239,227.757 152.573,225.757 155.5,224.5 Z"/></g>
<g><path style="opacity:0.757" fill="#303479" d="M 446.5,230.5 C 444.1,233.903 441.1,236.57 437.5,238.5C 439.9,235.097 442.9,232.43 446.5,230.5 Z"/></g>
<g><path style="opacity:0.914" fill="#373f97" d="M 437.5,238.5 C 434.833,243.167 431.167,246.833 426.5,249.5C 429.833,245.5 433.5,241.833 437.5,238.5 Z"/></g>
<g><path style="opacity:1" fill="#5764f0" d="M 682.5,402.5 C 682.715,400.821 682.048,399.821 680.5,399.5C 667.759,376.906 651.759,356.739 632.5,339C 643.308,331.041 654.975,324.541 667.5,319.5C 669.967,319.245 671.967,318.245 673.5,316.5C 674.391,315.89 675.391,315.557 676.5,315.5C 678.027,315.573 679.027,314.906 679.5,313.5C 686.976,310.564 694.643,308.23 702.5,306.5C 705.152,306.59 707.485,305.924 709.5,304.5C 712.679,303.207 716.012,302.54 719.5,302.5C 722.152,302.59 724.485,301.924 726.5,300.5C 759.91,296.118 793.243,296.618 826.5,302C 836.669,304.042 846.669,306.709 856.5,310C 901.408,379.396 925.908,455.562 930,538.5C 935.344,629.787 916.677,715.787 874,796.5C 869.543,804.584 864.709,812.418 859.5,820C 842.304,827.8 824.304,832.8 805.5,835C 772.715,838.927 740.049,838.26 707.5,833C 679.41,827.034 653.91,815.534 631,798.5C 630.333,797.833 630.333,797.167 631,796.5C 668.471,762.597 693.471,720.93 706,671.5C 719.547,615.038 722.214,558.038 714,500.5C 708.735,466.094 698.235,433.427 682.5,402.5 Z"/></g>
<g><path style="opacity:0.584" fill="#1c1d43" d="M 726.5,300.5 C 724.485,301.924 722.152,302.59 719.5,302.5C 721.515,301.076 723.848,300.41 726.5,300.5 Z"/></g>
<g><path style="opacity:0.882" fill="#30357d" d="M 709.5,304.5 C 707.485,305.924 705.152,306.59 702.5,306.5C 704.438,304.837 706.772,304.171 709.5,304.5 Z"/></g>
<g><path style="opacity:0.569" fill="#2c3070" d="M 381.5,306.5 C 381.573,308.027 380.906,309.027 379.5,309.5C 379.427,307.973 380.094,306.973 381.5,306.5 Z"/></g>
<g><path style="opacity:0.557" fill="#2b2f6e" d="M 379.5,309.5 C 379.573,311.027 378.906,312.027 377.5,312.5C 377.427,310.973 378.094,309.973 379.5,309.5 Z"/></g>
<g><path style="opacity:0.631" fill="#222452" d="M 679.5,313.5 C 679.027,314.906 678.027,315.573 676.5,315.5C 676.973,314.094 677.973,313.427 679.5,313.5 Z"/></g>
<g><path style="opacity:0.706" fill="#2d3377" d="M 673.5,316.5 C 671.967,318.245 669.967,319.245 667.5,319.5C 669.033,317.755 671.033,316.755 673.5,316.5 Z"/></g>
<g><path style="opacity:0.957" fill="#2e3171" d="M 680.5,399.5 C 682.048,399.821 682.715,400.821 682.5,402.5C 681.599,401.71 680.932,400.71 680.5,399.5 Z"/></g>
<g><path style="opacity:0.973" fill="#353b8b" d="M 26.5,428.5 C 26.5905,431.152 25.9238,433.485 24.5,435.5C 24.4095,432.848 25.0762,430.515 26.5,428.5 Z"/></g>
<g><path style="opacity:0.757" fill="#333a89" d="M 321.5,442.5 C 321.59,445.152 320.924,447.485 319.5,449.5C 319.41,446.848 320.076,444.515 321.5,442.5 Z"/></g>
<g><path style="opacity:0.796" fill="#353b8d" d="M 528.5,662.5 C 529.924,664.515 530.59,666.848 530.5,669.5C 529.076,667.485 528.41,665.152 528.5,662.5 Z"/></g>
<g><path style="opacity:0.929" fill="#2d306f" d="M 48.5,766.5 C 50.0481,766.821 50.7148,767.821 50.5,769.5C 49.5987,768.71 48.9321,767.71 48.5,766.5 Z"/></g>
<g><path style="opacity:0.769" fill="#2b2e6b" d="M 281.5,771.5 C 282.906,771.973 283.573,772.973 283.5,774.5C 282.094,774.027 281.427,773.027 281.5,771.5 Z"/></g>
<g><path style="opacity:0.925" fill="#2e2f6b" d="M 344.5,821.5 C 345.71,821.932 346.71,822.599 347.5,823.5C 345.821,823.715 344.821,823.048 344.5,821.5 Z"/></g>
<g><path style="opacity:0.592" fill="#2c306e" d="M 382.5,867.5 C 383.906,867.973 384.573,868.973 384.5,870.5C 383.094,870.027 382.427,869.027 382.5,867.5 Z"/></g>
<g><path style="opacity:0.686" fill="#26275a" d="M 388.5,875.5 C 389.906,875.973 390.573,876.973 390.5,878.5C 389.094,878.027 388.427,877.027 388.5,875.5 Z"/></g>
<g><path style="opacity:0.761" fill="#2b2e6a" d="M 443.5,914.5 C 445.027,914.427 446.027,915.094 446.5,916.5C 444.973,916.573 443.973,915.906 443.5,914.5 Z"/></g>
<g><path style="opacity:0.557" fill="#22234f" d="M 424.5,915.5 C 425.906,915.973 426.573,916.973 426.5,918.5C 425.094,918.027 424.427,917.027 424.5,915.5 Z"/></g>
<g><path style="opacity:0.78" fill="#2b306d" d="M 450.5,920.5 C 452.027,920.427 453.027,921.094 453.5,922.5C 451.973,922.573 450.973,921.906 450.5,920.5 Z"/></g>
<g><path style="opacity:0.365" fill="#22275d" d="M 573.5,1009.5 C 577.47,1010.98 577.137,1011.65 572.5,1011.5C 572.833,1010.83 573.167,1010.17 573.5,1009.5 Z"/></g>
</svg>
